<svg width="72" height="72" viewBox="0 0 72 72" fill="none" xmlns="http://www.w3.org/2000/svg">
<rect width="72" height="72" rx="8" fill="url(#paint0_linear_3567_1445)"/>
<path d="M47.7621 45.5472V33.4632C47.7621 32.774 47.3945 32.1307 46.8891 31.7172C45.7404 30.8442 44.8215 30.109 39.3538 26.1576C38.5727 25.6063 37.0565 24.2279 35.9997 24.2738C34.897 24.2279 33.3807 25.6063 32.5996 26.1576C27.132 30.109 26.213 30.8442 25.0643 31.7172C24.5589 32.1307 24.2373 32.774 24.2373 33.4632V45.5472C24.2373 46.7877 25.2022 47.7526 26.4428 47.7526H45.5566C46.7512 47.7526 47.7621 46.7877 47.7621 45.5472ZM44.7296 36.5416L45.1431 37.1389C45.189 37.1848 45.189 37.2767 45.189 37.3686C45.189 37.4605 45.1431 37.5984 45.0512 37.6443C43.9944 38.4254 42.5241 39.5281 40.2268 41.1822C39.2619 41.8714 37.6078 43.3877 35.9997 43.3417C34.3456 43.3877 32.6915 41.8714 31.7266 41.1822C29.4293 39.5281 27.959 38.4254 26.9022 37.6443C26.8103 37.5984 26.7644 37.4605 26.7644 37.3686C26.7644 37.2767 26.7644 37.1848 26.8103 37.1389L27.2238 36.5416C27.3617 36.3578 27.5914 36.3119 27.7752 36.4497C28.786 37.2308 30.3023 38.3335 32.5996 39.9876C33.3807 40.539 34.897 41.9174 35.9997 41.8714C37.0565 41.9174 38.5727 40.539 39.3538 39.9876C41.6511 38.3335 43.1674 37.2308 44.1782 36.4497C44.362 36.3119 44.5917 36.3578 44.7296 36.5416Z" fill="white"/>
<defs>
<linearGradient id="paint0_linear_3567_1445" x1="36" y1="0" x2="36" y2="72" gradientUnits="userSpaceOnUse">
<stop stop-color="#BD3B9B"/>
<stop offset="1" stop-color="#EE5BC7"/>
</linearGradient>
</defs>
</svg>
