<svg width="72" height="72" viewBox="0 0 72 72" fill="none" xmlns="http://www.w3.org/2000/svg">
<rect width="72" height="72" rx="8" fill="url(#paint0_linear_3567_520)"/>
<path d="M43.3512 25.6982H25.6617C24.8806 25.6982 24.2373 26.3874 24.2373 27.2144V44.812C24.2373 45.6391 24.8806 46.2823 25.6617 46.2823H43.3512C44.1323 46.2823 44.8215 45.6391 44.8215 44.812V27.2144C44.8215 26.3874 44.1323 25.6982 43.3512 25.6982ZM30.4401 43.3417H27.4076V33.5551H30.4401V43.3417ZM28.9239 32.1766C27.913 32.1766 27.132 31.3956 27.132 30.4307C27.132 29.4658 27.913 28.6387 28.9239 28.6387C29.8888 28.6387 30.6699 29.4658 30.6699 30.4307C30.6699 31.3956 29.8888 32.1766 28.9239 32.1766ZM41.8809 43.3417H38.8024V38.5632C38.8024 37.4605 38.8024 35.9902 37.2402 35.9902C35.6321 35.9902 35.4024 37.2308 35.4024 38.5173V43.3417H32.3699V33.5551H35.2645V34.8875H35.3105C35.724 34.1064 36.7348 33.2794 38.2051 33.2794C41.2836 33.2794 41.8809 35.347 41.8809 37.9659V43.3417Z" fill="white"/>
<defs>
<linearGradient id="paint0_linear_3567_520" x1="36" y1="0" x2="36" y2="72" gradientUnits="userSpaceOnUse">
<stop stop-color="#4E73FF"/>
<stop offset="1" stop-color="#506CCF"/>
</linearGradient>
</defs>
</svg>
